<svg version="1.1" id="Layer_1" xmlns="http://www.w3.org/2000/svg" xmlns:xlink="http://www.w3.org/1999/xlink" x="0px" y="0px"
	 width="100%" viewBox="0 0 1024 1024" enable-background="new 0 0 1024 1024" xml:space="preserve">
<path fill="#000000" opacity="1.000000" stroke="none" 
	d="
M364.712677,544.000000 
	C364.720642,499.674164 364.826965,455.847931 364.664215,412.022736 
	C364.624725,401.393005 368.322723,392.991791 377.639984,387.870331 
	C387.254761,382.585327 396.887207,383.691711 406.018829,389.634155 
	C434.921143,408.442596 463.841156,427.223969 492.723175,446.063568 
	C507.420441,455.650482 507.401703,455.714355 522.224060,446.118744 
	C551.172974,427.377991 580.139221,408.663818 609.029541,389.833099 
	C618.046814,383.955688 627.277832,382.815399 636.868958,387.927032 
	C646.296570,392.951508 649.431091,401.414490 649.661560,411.646423 
	C650.449646,446.632172 649.059021,481.608643 649.412781,516.590515 
	C649.608154,535.914551 649.681213,555.240356 649.991272,574.562439 
	C650.187439,586.786133 645.389404,595.732666 634.829651,602.370483 
	C611.703369,616.907532 589.195740,632.434937 565.967712,646.801697 
	C547.238586,658.385864 526.668030,664.805237 504.341034,664.292786 
	C480.765747,663.751709 459.850159,655.223694 440.437653,642.516785 
	C419.113373,628.558289 397.928711,614.386597 376.661011,600.341431 
	C368.620972,595.031860 364.858765,587.430481 364.744812,577.993164 
	C364.609985,566.830261 364.712494,555.664490 364.712677,544.000000 
M452.446869,584.999512 
	C459.002991,589.279907 465.534424,593.598755 472.119751,597.833740 
	C495.388672,612.797913 518.807556,612.812012 542.081848,598.037354 
	C558.398926,587.679138 574.410217,576.839966 590.679077,566.404358 
	C593.904602,564.335327 595.005615,561.925903 594.984314,558.207581 
	C594.818115,529.209595 594.828430,500.210602 594.732300,471.212067 
	C594.726562,469.475159 595.293396,467.510590 593.575745,465.993103 
	C591.427856,465.917145 589.900818,467.309692 588.258606,468.378815 
	C566.895325,482.287170 545.421204,496.030151 524.232483,510.199860 
	C512.837402,517.820129 502.147858,517.603516 490.822205,510.118652 
	C469.002411,495.698517 446.942230,481.641907 424.970093,467.452606 
	C423.758331,466.670044 422.538483,465.280823 420.944855,466.219666 
	C419.506897,467.066742 419.542419,468.710144 419.508514,470.246674 
	C418.857727,499.724182 420.802185,529.207092 419.331818,558.679077 
	C419.169800,561.926453 420.383057,563.905212 423.046814,565.624207 
	C432.706268,571.857666 442.251923,578.267456 452.446869,584.999512 
z"/>
</svg>